<?xml version="1.0" encoding="utf-8"?>
<!-- Generator: Adobe Illustrator 22.1.0, SVG Export Plug-In . SVG Version: 6.00 Build 0)  -->
<svg version="1.1" id="Layer_1" xmlns="http://www.w3.org/2000/svg" xmlns:xlink="http://www.w3.org/1999/xlink" x="0px" y="0px"
	 viewBox="0 0 40 30" style="enable-background:new 0 0 40 30;" xml:space="preserve">
<style type="text/css">
	.st0{fill:none;stroke:#FFFFFF;stroke-miterlimit:10;}
	.st1{fill:#FFFFFF;stroke:#FFFFFF;stroke-width:0.5;stroke-miterlimit:10;}
	.st2{fill:none;stroke:#FFFFFF;stroke-width:0.25;stroke-miterlimit:10;}
	.st3{fill:#FFFFFF;stroke:#FFFFFF;stroke-width:0.75;stroke-miterlimit:10;}
	.st4{fill:none;}
	.st5{fill:#8E2316;}
	.st6{fill:#D0331F;}
</style>
<line class="st0" x1="21.9" y1="1.6" x2="28.7" y2="9.4"/>
<rect x="25.2" y="0.3" transform="matrix(0.7521 -0.6591 0.6591 0.7521 2.6677 18.0404)" class="st1" width="0.1" height="10.4"/>
<line class="st2" x1="27.1" y1="8.7" x2="32.8" y2="15.3"/>
<rect x="29.9" y="7.7" transform="matrix(0.7521 -0.6591 0.6591 0.7521 -0.4862 22.714)" class="st3" width="0.1" height="8.7"/>
<line class="st4" x1="31.8" y1="15.2" x2="37.3" y2="21.6"/>
<rect x="34.5" y="14.2" transform="matrix(0.7521 -0.6591 0.6591 0.7521 -3.5646 27.3476)" class="st3" width="0.1" height="8.4"/>
<line class="st0" x1="23" y1="1.6" x2="14.4" y2="9.2"/>
<rect x="13" y="5.3" transform="matrix(0.752 -0.6592 0.6592 0.752 1.0772 13.6487)" class="st3" width="11.4" height="0.1"/>
<line class="st0" x1="16.1" y1="9.2" x2="9.2" y2="15.2"/>
<rect x="8.1" y="12.1" transform="matrix(0.752 -0.6592 0.6592 0.752 -4.8806 11.3675)" class="st3" width="9.1" height="0.1"/>
<line class="st0" x1="9.9" y1="15.2" x2="15.3" y2="21.4"/>
<rect x="12.6" y="14.2" transform="matrix(0.7521 -0.6591 0.6591 0.7521 -8.9098 12.863)" class="st3" width="0.1" height="8.2"/>
<line class="st0" x1="14.1" y1="21.1" x2="19.6" y2="27.4"/>
<rect x="16.8" y="20.1" transform="matrix(0.7521 -0.6591 0.6591 0.7521 -11.8029 17.1144)" class="st3" width="0.1" height="8.4"/>
<line class="st0" x1="27.5" y1="9.9" x2="21.4" y2="15.2"/>
<rect x="20.4" y="12.5" transform="matrix(0.752 -0.6592 0.6592 0.752 -2.2011 19.2544)" class="st3" width="8.1" height="0.1"/>
<line class="st4" x1="22.2" y1="15.1" x2="27.8" y2="21.5"/>
<rect x="25" y="14.1" transform="matrix(0.7521 -0.6591 0.6591 0.7521 -5.8698 21.0385)" class="st3" width="0.1" height="8.5"/>
<line class="st0" x1="10.9" y1="15.3" x2="4" y2="21.3"/>
<rect x="2.9" y="18.2" transform="matrix(0.752 -0.6592 0.6592 0.752 -10.2063 9.4544)" class="st3" width="9.1" height="0.1"/>
<rect x="20.8" y="0.8" class="st5" width="2.7" height="2.7"/>
<rect x="14.1" y="8.3" class="st5" width="2.7" height="2.7"/>
<rect x="26.4" y="8.3" class="st6" width="2.7" height="2.7"/>
<rect x="21.2" y="14.3" class="st5" width="2.7" height="2.7"/>
<rect x="30.6" y="14.3" class="st6" width="2.7" height="2.7"/>
<rect x="25.7" y="20.6" class="st6" width="2.7" height="2.7"/>
<rect x="35.2" y="20.6" class="st5" width="2.7" height="2.7"/>
<rect x="13.3" y="20.6" class="st6" width="2.7" height="2.7"/>
<rect x="17.7" y="26.8" class="st5" width="2.7" height="2.7"/>
<rect x="8.8" y="14.3" class="st6" width="2.7" height="2.7"/>
<rect x="3.4" y="20.6" class="st6" width="2.7" height="2.7"/>
</svg>
